#!OML:ASF X:\für Bonn\!DataBase\2005_08_10_Bjorn_Final\c3d\bjorn.ASF
:FULLY-SPECIFIED
:DEGREES
92
root -16.3195 17.9703 18.5811 187.473 42.017 -531.309
lowerback 10.2504 -0.0245103 1.36075
upperback 18.8176 3.11201 -0.0398311
thorax 15.2982 2.8993 -0.383474
lowerneck 8.64143 -0.788419 -1.24274
upperneck -17.8426 -0.278166 3.45569
head -6.85372 -0.169277 1.32204
rclavicle -7.67309e-014 1.98785e-014
rhumerus -13.528 -4.96503 -90.8313
rradius 59.7958
rwrist -1.35953
rhand -19.9889 20.0208
rfingers 7.12502
rthumb 6.35056 -9.86402
lclavicle -7.67309e-014 1.98785e-014
lhumerus -10.7463 -5.12955 82.6083
lradius 54.8968
lwrist -15.9775
lhand -43.6673 -16.4127
lfingers 7.12502
lthumb -16.5009 12.9056
rfemur -1.07647 -3.75022 20.986
rtibia 40.5709
rfoot -30.1457 11.7491
rtoes -24.6531
lfemur -40.4004 11.611 -4.99179
ltibia 46.1716
lfoot -0.428065 2.8573
ltoes -22.6804
93
root -16.3088 17.9942 18.4709 187.778 42.0069 -531.32
lowerback 10.3307 0.0305472 1.46338
upperback 18.7849 3.19162 -0.0850925
thorax 15.2175 2.95601 -0.495325
lowerneck 8.78363 -0.986238 -1.25048
upperneck -17.8777 -0.488774 3.81846
head -6.88321 -0.303868 1.45937
rclavicle 3.85642e-014 -5.92378e-014
rhumerus -13.6373 -5.26478 -90.8058
rradius 60.1292
rwrist -1.4013
rhand -19.9742 19.9711
rfingers 7.12502
rthumb 6.36469 -9.91326
lclavicle 3.85642e-014 -5.92378e-014
lhumerus -10.7039 -5.08385 82.7427
lradius 55.5246
lwrist -15.7749
lhand -43.7532 -16.6473
lfingers 7.12502
lthumb -16.5837 12.6641
rfemur -0.882974 -3.71707 20.7227
rtibia 40.021
rfoot -29.7695 11.861
rtoes -25.0459
lfemur -40.5881 11.664 -5.29484
ltibia 46.434
lfoot -0.909136 2.94556
ltoes -22.5733
94
root -16.2998 18.0186 18.3574 188.094 42.016 -531.33
lowerback 10.3848 0.0843992 1.58695
upperback 18.7434 3.26539 -0.134944
thorax 15.1431 3.01135 -0.623499
lowerneck 8.92918 -1.1825 -1.26952
upperneck -17.866 -0.702198 4.18541
head -6.89717 -0.440735 1.6003
rclavicle -7.51406e-014 3.53837e-014
rhumerus -13.7277 -5.57288 -90.775
rradius 60.4233
rwrist -1.35778
rhand -19.9199 19.9457
rfingers 7.12502
rthumb 6.41716 -9.93705
lclavicle -7.51406e-014 3.53837e-014
lhumerus -10.7055 -4.99703 82.9109
lradius 56.1564
lwrist -15.6048
lhand -43.8678 -16.8235
lfingers 7.12502
lthumb -16.6939 12.4787
rfemur -0.692496 -3.65594 20.4458
rtibia 39.4505
rfoot -29.2364 12.0675
rtoes -24.9127
lfemur -40.778 11.7268 -5.6041
ltibia 46.6932
lfoot -1.3407 3.03937
ltoes -22.1566
95
root -16.2902 18.043 18.2424 188.395 42.0153 -531.392
lowerback 10.4039 0.142316 1.66902
upperback 18.6928 3.33997 -0.191829
thorax 15.077 3.05993 -0.735641
lowerneck 9.14065 -1.38184 -1.27599
upperneck -17.9279 -0.911939 4.56035
head -6.94583 -0.577757 1.74324
rclavicle 3.10104e-014 -1.86858e-014
rhumerus -13.8213 -5.9256 -90.769
rradius 60.7278
rwrist -1.29294
rhand -19.8478 19.9086
rfingers 7.12502
rthumb 6.48678 -9.9721
lclavicle 3.10104e-014 -1.86858e-014
lhumerus -10.7241 -4.90151 83.0909
lradius 56.7925
lwrist -15.4377
lhand -43.925 -16.9338
lfingers 7.12502
lthumb -16.749 12.3637
rfemur -0.519608 -3.59493 20.1288
rtibia 38.8811
rfoot -28.5794 12.3685
rtoes -24.4618
lfemur -40.9804 11.79 -5.96669
ltibia 46.9393
lfoot -1.75499 3.13181
ltoes -21.6292
96
root -16.2808 18.0669 18.1268 188.707 42.0326 -531.424
lowerback 10.4232 0.194832 1.70179
upperback 18.6522 3.40546 -0.226223
thorax 15.0193 3.0951 -0.795176
lowerneck 9.25078 -1.57823 -1.2685
upperneck -17.9068 -1.12584 4.89784
head -6.94918 -0.713794 1.87054
rclavicle -5.08889e-014 5.96354e-014
rhumerus -13.8503 -6.21941 -90.7497
rradius 60.9528
rwrist -1.21133
rhand -19.7939 19.9754
rfingers 7.12502
rthumb 6.53881 -9.90364
lclavicle -5.08889e-014 5.96354e-014
lhumerus -10.7197 -4.67292 83.3203
lradius 57.3896
lwrist -15.3136
lhand -43.9068 -17.0622
lfingers 7.12502
lthumb -16.7314 12.2368
rfemur -0.348124 -3.50605 19.8358
rtibia 38.3191
rfoot -27.8101 12.6655
rtoes -23.9155
lfemur -41.1521 11.8547 -6.29885
ltibia 47.1719
lfoot -2.18007 3.21835
ltoes -21.1
97
root -16.2711 18.0908 18.0109 189.002 42.0522 -531.485
lowerback 10.4524 0.260735 1.70095
upperback 18.5842 3.48033 -0.262639
thorax 14.9178 3.12717 -0.841421
lowerneck 9.44632 -1.77968 -1.19608
upperneck -17.9128 -1.34112 5.20655
head -6.97667 -0.854333 1.97961
rclavicle -1.04561e-013 1.00585e-013
rhumerus -13.9333 -6.53039 -90.7404
rradius 61.1728
rwrist -1.06245
rhand -19.78 20.0173
rfingers 7.12502
rthumb 6.55221 -9.86133
lclavicle -1.04561e-013 1.00585e-013
lhumerus -10.7723 -4.45694 83.5647
lradius 57.9652
lwrist -15.232
lhand -43.9211 -17.1125
lfingers 7.12502
lthumb -16.7453 12.1854
rfemur -0.198498 -3.4419 19.5212
rtibia 37.7921
rfoot -27.1007 12.8146
rtoes -23.8494
lfemur -41.3012 11.879 -6.63589
ltibia 47.3803
lfoot -2.59638 3.33087
ltoes -20.3904
98
root -16.2614 18.1156 17.8943 189.298 42.1013 -531.562
lowerback 10.453 0.331778 1.66664
upperback 18.5276 3.56361 -0.305642
thorax 14.8484 3.15976 -0.873765
lowerneck 9.53779 -1.98397 -1.08804
upperneck -17.8736 -1.56179 5.47649
head -6.97121 -0.994536 2.06882
rclavicle -2.54444e-014 7.15625e-015
rhumerus -13.967 -6.83488 -90.7255
rradius 61.3706
rwrist -0.954986
rhand -19.7705 20.1295
rfingers 7.12502
rthumb 6.56141 -9.74883
lclavicle -2.54444e-014 7.15625e-015
lhumerus -10.7771 -4.23497 83.8062
lradius 58.5098
lwrist -15.0694
lhand -43.9264 -17.2487
lfingers 7.12502
lthumb -16.7504 12.0487
rfemur -0.0972768 -3.35459 19.1857
rtibia 37.3116
rfoot -26.3377 12.9758
rtoes -23.8044
lfemur -41.4349 11.9327 -6.99396
ltibia 47.5544
lfoot -2.98922 3.43364
ltoes -19.5586
99
root -16.2515 18.1421 17.7784 189.549 42.1555 -531.666
lowerback 10.4777 0.39684 1.5795
upperback 18.468 3.63691 -0.346086
thorax 14.7563 3.17979 -0.876344
lowerneck 9.64538 -2.1929 -0.965034
upperneck -17.8183 -1.79706 5.70197
head -6.96326 -1.13995 2.14252
rclavicle -1.31198e-014 -2.98177e-014
rhumerus -14.0312 -7.07407 -90.6882
rradius 61.5355
rwrist -0.88591
rhand -19.8104 20.3435
rfingers 7.12502
rthumb 6.52289 -9.53605
lclavicle -1.31198e-014 -2.98177e-014
lhumerus -10.8045 -3.98139 84.0556
lradius 59.0498
lwrist -14.9353
lhand -43.8909 -17.2295
lfingers 7.12502
lthumb -16.7162 12.0708
rfemur -0.00825699 -3.23009 18.8476
rtibia 36.8997
rfoot -25.6117 13.0013
rtoes -24.1418
lfemur -41.5115 11.949 -7.35749
ltibia 47.69
lfoot -3.3681 3.51642
ltoes -18.9549
100
root -16.2419 18.1691 17.6636 189.798 42.2011 -531.772
lowerback 10.4946 0.457005 1.46762
upperback 18.4046 3.69936 -0.373948
thorax 14.6606 3.18906 -0.851595
lowerneck 9.76713 -2.39919 -0.859961
upperneck -17.7748 -2.0301 5.93177
head -6.96117 -1.28372 2.22097
rclavicle -4.96962e-014 1.07344e-014
rhumerus -14.103 -7.2894 -90.6348
rradius 61.725
rwrist -0.866183
rhand -19.7755 20.4977
rfingers 7.12502
rthumb 6.55656 -9.38083
lclavicle -4.96962e-014 1.07344e-014
lhumerus -10.8313 -3.72189 84.3152
lradius 59.5591
lwrist -14.7578
lhand -43.8553 -17.2462
lfingers 7.12502
lthumb -16.6819 12.057
rfemur 0.0257028 -3.09451 18.5298
rtibia 36.5647
rfoot -24.9377 12.9039
rtoes -24.8259
lfemur -41.5619 11.9643 -7.71191
ltibia 47.7758
lfoot -3.75317 3.57639
ltoes -18.0996
101
root -16.2316 18.1981 17.5503 190.057 42.2606 -531.848
lowerback 10.5191 0.521811 1.35694
upperback 18.3362 3.767 -0.405491
thorax 14.5546 3.20111 -0.832413
lowerneck 9.86981 -2.59951 -0.725005
upperneck -17.7016 -2.25379 6.14757
head -6.94691 -1.42345 2.28836
rclavicle 2.50469e-014 -3.93594e-014
rhumerus -14.1797 -7.47986 -90.575
rradius 61.8386
rwrist -0.905668
rhand -19.7846 20.7751
rfingers 7.12502
rthumb 6.54773 -9.10368
lclavicle 2.50469e-014 -3.93594e-014
lhumerus -10.8587 -3.50494 84.5393
lradius 60.0436
lwrist -14.5734
lhand -43.8541 -17.2328
lfingers 7.12502
lthumb -16.6808 12.0705
rfemur 0.0120926 -2.9122 18.2478
rtibia 36.3195
rfoot -24.2823 12.7385
rtoes -25.6119
lfemur -41.5688 11.9781 -8.03507
ltibia 47.8186
lfoot -4.08216 3.64532
ltoes -17.4386
102
root -16.2206 18.2288 17.4372 190.268 42.3398 -531.971
lowerback 10.5336 0.585122 1.19628
upperback 18.2708 3.83142 -0.440144
thorax 14.4555 3.20511 -0.788536
lowerneck 10.0101 -2.7867 -0.647537
upperneck -17.6624 -2.45758 6.41091
head -6.94917 -1.55435 2.38045
rclavicle -8.74653e-015 7.15625e-014
rhumerus -14.273 -7.62408 -90.5076
rradius 61.9827
rwrist -0.98396
rhand -19.7628 21.0538
rfingers 7.12502
rthumb 6.56878 -8.82429
lclavicle -8.74653e-015 7.15625e-014
lhumerus -10.8824 -3.28456 84.7533
lradius 60.4831
lwrist -14.3667
lhand -43.877 -17.2699
lfingers 7.12502
lthumb -16.7028 12.0315
rfemur -0.035326 -2.70352 17.9262
rtibia 36.171
rfoot -23.6217 12.5453
rtoes -26.5082
lfemur -41.5289 11.9795 -8.38752
ltibia 47.8166
lfoot -4.40897 3.70909
ltoes -16.8215
103
root -16.2102 18.2602 17.3222 190.444 42.4263 -532.094
lowerback 10.5429 0.644438 1.06275
upperback 18.2139 3.89371 -0.476717
thorax 14.3728 3.21327 -0.760553
lowerneck 10.1803 -2.95605 -0.652991
upperneck -17.6356 -2.63369 6.75985
head -6.95845 -1.67421 2.51271
rclavicle 3.29983e-014 -4.77083e-014
rhumerus -14.3612 -7.79307 -90.4186
rradius 62.061
rwrist -1.02085
rhand -19.7179 21.3289
rfingers 7.12502
rthumb 6.61215 -8.54787
lclavicle 3.29983e-014 -4.77083e-014
lhumerus -10.8898 -3.10456 84.9783
lradius 60.8727
lwrist -14.1902
lhand -43.9035 -17.2094
lfingers 7.12502
lthumb -16.7283 12.0898
rfemur -0.097151 -2.52184 17.5851
rtibia 36.123
rfoot -22.9959 12.3494
rtoes -27.5345
lfemur -41.4189 11.9622 -8.72305
ltibia 47.7862
lfoot -4.71823 3.76993
ltoes -16.0229
